<svg xmlns="http://www.w3.org/2000/svg" viewBox="0 0 24 24" role="img" aria-label="TryAgainText">
  <path d="M6 4.5h9a4.5 4.5 0 0 1 0 9H10l-4.2 3a.8.8 0 0 1-1.3-.66V13.5A4.5 4.5 0 0 1 6 4.5Z" fill="none" stroke="#F4F2EE" stroke-width="1.8" stroke-linecap="round" stroke-linejoin="round"/>
  <circle cx="7.75" cy="9.75" r="1" fill="#F4F2EE"/>
  <circle cx="10.75" cy="9.75" r="1" fill="#F4F2EE"/>
  <circle cx="13.75" cy="9.75" r="1" fill="#F4F2EE"/>
  <path d="M17.9 4.85c-.8 0-1.5.39-1.9.98a2.4 2.4 0 0 0-1.9-.98c-1.2 0-2.2 1-2.2 2.22 0 .58.22 1.1.58 1.5.73.86 2.08 1.96 3.52 3.02 1.44-1.06 2.79-2.16 3.52-3.02.36-.4.58-.92.58-1.5 0-1.22-1-2.22-2.2-2.22Z" fill="#D4AF37"/>
</svg>
